<!-- <?xml version="1.0" encoding="UTF-8"?> -->

<!-- fill:secondary -->
<svg xmlns="http://www.w3.org/2000/svg" viewBox="0 0 50 40" fill="oklch(58% 0.253 17.585)">
  <path d="M4,19H0c.14-2.92.9-5.67,2.16-8.13l3.47,2.01c-.93,1.87-1.5,3.93-1.63,6.13ZM4,21H0c.14,2.92.9,5.67,2.16,8.14l3.47-2.01c-.93-1.87-1.5-3.94-1.63-6.13ZM11.11,6.64l-2-3.47c-2.38,1.54-4.41,3.57-5.95,5.96l3.46,2c1.18-1.78,2.71-3.31,4.48-4.49ZM6.63,28.87l-3.46,2c1.54,2.38,3.57,4.41,5.95,5.96l2-3.47c-1.78-1.18-3.3-2.71-4.48-4.49ZM18.97,4.01V0c-2.92.14-5.67.9-8.12,2.17l2.01,3.48c1.86-.93,3.93-1.5,6.12-1.64ZM35.94,19h4c-.14-2.92-.9-5.67-2.16-8.14l-3.47,2.01c.93,1.87,1.5,3.93,1.63,6.13ZM33.31,11.13l3.46-2c-1.54-2.38-3.57-4.41-5.95-5.96l-2,3.47c1.78,1.18,3.3,2.71,4.48,4.49ZM27.09,5.65l2.01-3.48C26.64.9,23.89.14,20.97,0v4.01c2.19.14,4.25.71,6.12,1.64ZM12.85,34.35l-2.01,3.48c2.46,1.26,5.21,2.02,8.12,2.17v-4.01c-2.19-.14-4.25-.71-6.12-1.64ZM35.94,21c-.14,2.19-.71,4.26-1.63,6.13l3.47,2.01c1.26-2.46,2.02-5.22,2.16-8.14h-4ZM20.97,35.99v4.01c2.92-.14,5.67-.9,8.12-2.17l-2.01-3.48c-1.86.93-3.93,1.5-6.12,1.64ZM28.83,33.36l2,3.47c2.38-1.54,4.41-3.57,5.95-5.96l-3.46-2c-1.18,1.78-2.71,3.31-4.48,4.49ZM19.97,5.96c-7.73,0-14.01,6.3-14.01,14.04s6.29,14.04,14.01,14.04,14.01-6.3,14.01-14.04-6.29-14.04-14.01-14.04"/>
  <polygon points="42.99 15.95 42.99 24.05 50 20 42.99 15.95"/>
</svg>